<svg width="402" height="402" viewBox="0 0 402 402" fill="none" xmlns="http://www.w3.org/2000/svg">
<rect width="402" height="402" rx="40" fill="url(#paint0_linear)"/>
<rect x="172" y="55" width="58" height="292" rx="29" fill="#88FFF8" fill-opacity="0.6"/>
<rect x="307" y="137" width="58" height="128" rx="29" fill="#BA9BFD" fill-opacity="0.63"/>
<rect x="32" y="137" width="58" height="128" rx="29" fill="#BA9BFD" fill-opacity="0.63"/>
<path d="M275.144 284C269.178 284 266.195 284 263.948 282.767C262.287 281.855 260.919 280.491 260.004 278.832C258.765 276.587 258.758 273.605 258.744 267.639L258.685 243.19C258.642 224.791 258.62 215.591 255.34 212.623C252.981 210.488 249.747 209.603 246.63 210.24C242.296 211.125 237.594 219.032 228.189 234.847L213.929 258.829C212.411 261.382 211.651 262.659 210.634 263.619C209.469 264.719 208.056 265.522 206.515 265.962C205.17 266.346 203.685 266.346 200.714 266.346V266.346C197.774 266.346 196.304 266.346 194.971 265.969C193.443 265.537 192.04 264.748 190.878 263.667C189.864 262.722 189.1 261.466 187.574 258.954L173.634 236.01C164.195 220.473 159.475 212.705 155.148 211.854C152.035 211.241 148.816 212.142 146.474 214.282C143.218 217.256 143.218 226.346 143.218 244.525V267.6C143.218 273.578 143.218 276.568 141.981 278.818C141.067 280.48 139.699 281.849 138.036 282.763C135.786 284 132.797 284 126.818 284H123.4C117.422 284 114.432 284 112.182 282.763C110.52 281.849 109.151 280.48 108.237 278.818C107 276.568 107 273.578 107 267.6V133.4C107 127.422 107 124.432 108.237 122.182C109.151 120.52 110.52 119.151 112.182 118.237C114.432 117 117.422 117 123.4 117H129.656C133.176 117 134.937 117 136.509 117.537C137.681 117.938 138.769 118.553 139.716 119.351C140.987 120.421 141.895 121.93 143.709 124.946L187.196 197.237C192.059 205.321 194.491 209.363 197.691 210.598C200.03 211.501 202.623 211.492 204.956 210.574C208.147 209.317 210.551 205.259 215.36 197.142L258.07 125.042C259.877 121.99 260.781 120.464 262.056 119.381C263.006 118.573 264.099 117.95 265.278 117.545C266.859 117 268.633 117 272.18 117H278.17C284.133 117 287.115 117 289.361 118.233C291.022 119.144 292.39 120.507 293.306 122.165C294.545 124.409 294.553 127.39 294.57 133.353L294.953 267.553C294.97 273.547 294.979 276.544 293.744 278.801C292.831 280.468 291.462 281.841 289.797 282.759C287.544 284 284.547 284 278.553 284H275.144Z" fill="#F9C0F0"/>
<defs>
<linearGradient id="paint0_linear" x1="0" y1="0" x2="402" y2="402" gradientUnits="userSpaceOnUse">
<stop stop-color="white"/>
<stop offset="1" stop-color="white"/>
</linearGradient>
</defs>
</svg>
